<?xml version="1.0" encoding="utf-8"?>
<!-- Generator: Adobe Illustrator 22.1.0, SVG Export Plug-In . SVG Version: 6.00 Build 0)  -->
<svg version="1.1" id="Layer_1" xmlns="http://www.w3.org/2000/svg" xmlns:xlink="http://www.w3.org/1999/xlink" x="0px" y="0px"
	 viewBox="0 0 131.1 158.2" style="enable-background:new 0 0 131.1 158.2;" xml:space="preserve">
<style type="text/css">
	.st0{fill:#7A7A7A;}
</style>
<path class="st0" d="M102,36.3c-3.8-6.4-10.2-6.7-16.9-7.3c-2.9-0.3-5.8-0.6-8.7-0.6c-3.8-0.3-7.6-0.3-11.4-0.3h-4.4
	c-6.4,0.3-12.5,0.6-18.6,1.2c-5.8,0.9-11.1,1.8-14.3,7c-1.5,2.3-1.7,4.1-2,5.3c-0.3,0.9-0.3,2.9-0.6,4.7c-0.6,2.9-0.6,6.1-0.9,9.4
	V58c0,2.3,0.3,4.7,2.3,6.1c3.8,4.1,9.9,3.8,14.9,4.1c7.9,0.3,16,0.6,23.9,0.6c10.2-0.3,20.7-0.3,27.4-0.6c4.1,0,9-1.5,11.6-5
	s1.2-9.7,0.9-13.5C104.9,45.1,104.3,40.4,102,36.3z M131.1,63.8c0-19.6-3.2-35.4-3.2-35.4c-0.9-6.4-5.8-22-23-25.2
	C89.8,0,65.9,0,64.7,0S39.9,0,24.8,3.2C7.3,6.4,3.3,21.9,2.4,28.4c0,0-2.3,16.4-2.3,35.4v23.4c0,20.8-0.3,40.4,0,44.2
	c2.3,23.1,15.1,27.8,22.4,27.8h85.3c7.3,0,20.7-4.4,23.3-27.8c-0.6-3.8,0-23.7,0-44.2L131.1,63.8z M109.3,75.5
	c-5.8,3.5-13.4,2.9-19.8,3.2C81.6,79,73.8,79,66.2,79.3h-1.5c-8.4,0-16.6-0.3-25-0.6c-6.7-0.3-14,0.3-19.8-2.9
	c-4.4-2.3-7.3-7.6-6.4-12.9c0-5.6,0.3-11.4,0.9-17c0.6-5,1.2-10.2,3.5-14.6c1.7-2.6,3.5-5,6.1-6.7c2.9-2,6.7-2.3,9.9-2.9
	c3.5-0.6,7-0.9,10.2-1.2c5.8-0.3,11.6-0.6,17.8-0.6h2.6c10.2,0,20.4,0.3,30.6,1.8c3.5,0.6,6.7,0.9,9.9,2.9c2.6,1.8,4.7,4.1,6.1,7
	c2.9,5.6,3.5,11.7,3.8,17.9c0,3.2,0.3,6.1,0.3,9.4C115.7,65.5,116,71.7,109.3,75.5z"/>
</svg>
