<svg xmlns="http://www.w3.org/2000/svg" width="113" height="98" viewBox="0 0 113 98">
  <g id="Group_762" data-name="Group 762" transform="translate(-663.5 -376)">
    <g id="Polygon_14" data-name="Polygon 14" transform="translate(663.5 376)" fill="#fff" stroke-linejoin="round">
      <path d="M 99.15343475341797 94.99999237060547 L 96.15343475341797 94.99999237060547 L 13.84656620025635 94.99999237060547 C 12.03961658477783 94.99999237060547 10.42118358612061 94.06592559814453 9.517216682434082 92.5013427734375 C 8.613266944885254 90.93673706054688 8.612400054931641 89.06809234619141 9.51491641998291 87.50265502929688 L 52.1683349609375 13.5197229385376 C 53.07181549072266 11.95263957977295 54.69111633300781 11.01705646514893 56.5 11.01705646514893 C 58.30888366699219 11.01705646514893 59.92818450927734 11.95263957977295 60.8316650390625 13.5197229385376 L 103.4850997924805 87.50265502929688 C 104.3874969482422 89.06787109375 104.3865356445312 90.93647003173828 103.4825134277344 92.50113677978516 C 102.578498840332 94.06584167480469 100.9601516723633 94.99999237060547 99.15345001220703 94.99999237060547 L 99.15343475341797 94.99999237060547 Z" stroke="none"/>
      <path d="M 56.5 14.01705932617188 C 56.06843948364258 14.01705932617188 55.26950073242188 14.14711761474609 54.76734161376953 15.01811981201172 L 12.11389923095703 89.00105285644531 C 11.61228179931641 89.87113952636719 11.89916229248047 90.62725830078125 12.11482238769531 91.00051879882812 C 12.33048248291016 91.37379455566406 12.84223937988281 92 13.84658050537109 92 L 99.1534423828125 92 C 100.1577606201172 92 100.6695175170898 91.37379455566406 100.8851776123047 91.00053405761719 C 101.1008377075195 90.62727355957031 101.3877182006836 89.87115478515625 100.8860778808594 89.00105285644531 L 58.23268127441406 15.01813507080078 C 57.73049926757812 14.14711761474609 56.93154144287109 14.01705932617188 56.5 14.01705932617188 M 56.5 8.017066955566406 C 59.19580459594727 8.017066955566406 61.89160919189453 9.351814270019531 63.43066024780273 12.02131652832031 L 106.0840835571289 86.00425720214844 C 109.1589202880859 91.33759307861328 105.3096618652344 98 99.1534423828125 98 L 13.84658050537109 98 C 7.690361022949219 98 3.841079711914062 91.33759307861328 6.915901184082031 86.00425720214844 L 49.56933975219727 12.02131652832031 C 51.10839080810547 9.351814270019531 53.80419540405273 8.017066955566406 56.5 8.017066955566406 Z" stroke="none" fill="#4a494a"/>
    </g>
    <path id="Path_411" data-name="Path 411" d="M-4.68-9.24V0H4.74V-9.24ZM4.44-31.32V-42.84H-4.44v11.52l2.28,18.48H2.1Z" transform="translate(720 457)" fill="#4a494a"/>
  </g>
</svg>
