<svg xmlns="http://www.w3.org/2000/svg" width="39.42" height="40.28" viewBox="0 0 18.593 19"><defs><style></style></defs><path class="a" d="M17.981,27H10.043a1.362,1.362,0,0,1-1.358-1.358V16.579a2.01,2.01,0,0,1,.742-1.732l.712-.607v1.792a.659.659,0,0,0,.281.55l.327.238L17.171,21.6a1.342,1.342,0,0,0,1.622,0l6.423-4.781.327-.238a.66.66,0,0,0,.281-.55V14.239l.712.607a2.011,2.011,0,0,1,.742,1.732v9.063A1.362,1.362,0,0,1,25.92,27H17.981ZM12.06,9.632H23.9a1.245,1.245,0,0,1,1.242,1.242v5.158l-.892.646V10.912a.34.34,0,0,0-.339-.34H12.049a.34.34,0,0,0-.339.34v5.766l-.891-.646V10.873A1.245,1.245,0,0,1,12.06,9.632Zm4.272-.679.5-.43A1.742,1.742,0,0,1,17.981,8a1.743,1.743,0,0,1,1.145.522l.5.43Z" transform="translate(-8.685 -8)"/></svg>