<svg id="Layer_2" data-name="Layer 2" xmlns="http://www.w3.org/2000/svg" width="109.273" height="89.453" viewBox="0 0 109.273 89.453">
  <g id="Layer_2-2" data-name="Layer 2">
    <path id="Path_412" data-name="Path 412" d="M100.47,89.453H8.8A8.8,8.8,0,0,1,0,80.65V8.8A8.8,8.8,0,0,1,8.8,0H100.47a8.8,8.8,0,0,1,8.8,8.8V80.65a8.8,8.8,0,0,1-8.8,8.8ZM7.8,5.864A1.939,1.939,0,0,0,5.864,7.8V81.65A1.939,1.939,0,0,0,7.8,83.589H101.47a1.939,1.939,0,0,0,1.922-1.939V7.8a1.939,1.939,0,0,0-1.922-1.939Z" fill="#4a494a"/>
    <path id="Path_413" data-name="Path 413" d="M13.321,60.156h67.8a2.9,2.9,0,0,0,2.42-4.616l-9.352-12.7a2.9,2.9,0,0,0-4.376-.378L60.2,51.611,37.893,21.324a2.9,2.9,0,0,0-4.77.137L10.815,55.678a2.9,2.9,0,0,0,2.505,4.479Z" transform="translate(7.408 14.42)" fill="#4a494a"/>
    <circle id="Ellipse_29" data-name="Ellipse 29" cx="10.176" cy="10.176" r="10.176" transform="translate(65.55 15.77)" fill="#4a494a"/>
  </g>
</svg>
