<svg xmlns="http://www.w3.org/2000/svg" width="70.434" height="90" viewBox="0 0 70.434 90">
  <g id="noun_PDF_749513" transform="translate(-14.783 -5)">
    <path id="Path_405" data-name="Path 405" d="M79.515,14.575a.656.656,0,0,0,.986,0l4.55-4.588a.658.658,0,0,0-.495-1.1H82.925V5.658A.655.655,0,0,0,82.269,5H77.746a.657.657,0,0,0-.658.658V8.892h-1.63a.658.658,0,0,0-.493,1.1Z" fill="#4a494a"/>
    <path id="Path_406" data-name="Path 406" d="M57.676,45.883c-1.881-2.1-3.739-4.44-5.412-6.548-.789-1-1.544-1.946-2.25-2.809l-.052-.063A29.53,29.53,0,0,0,51.719,29.3c.335-4.611-.18-7.581-1.573-9.078a3.463,3.463,0,0,0-3.683-.919,4.867,4.867,0,0,0-2.978,3.432c-1.1,3.366-.566,9.327,2.556,14.257a105.256,105.256,0,0,1-5.48,11.831,26.006,26.006,0,0,0-9.678,5.6c-3.053,2.98-4.294,5.938-3.406,8.114a3.491,3.491,0,0,0,3.383,2.152,6.38,6.38,0,0,0,3.422-1.141c2.891-1.89,6.666-8.187,8.691-11.836A53.878,53.878,0,0,1,53.4,49.663c.951-.092,1.9-.165,2.8-.216,3.679,3.885,6.688,5.934,9.46,6.445a9.085,9.085,0,0,0,1.661.156,5.567,5.567,0,0,0,5-2.41,3.571,3.571,0,0,0-.037-3.65c-1.538-2.663-6.18-4.129-13.071-4.129C58.718,45.86,58.206,45.867,57.676,45.883ZM32.364,60.615a3.085,3.085,0,0,1-1.5.57.678.678,0,0,1-.155-.015c-.069-.349.179-1.858,2.624-4.247a18.479,18.479,0,0,1,4.319-3.052C35.478,57.361,33.526,59.856,32.364,60.615Zm14.447-36.8c.255-.781.571-1.134.768-1.2l.013,0c.19.214,1,1.437.636,6.431a17.88,17.88,0,0,1-.632,3.28C46.428,29.319,46.107,25.977,46.811,23.82Zm6.251,22.361a59.441,59.441,0,0,0-7.862,1.3c1.227-2.45,2.363-4.933,3.312-7.234q.493.618,1.008,1.268c1.145,1.443,2.431,3.065,3.764,4.649Zm16.189,5.558c.052.09.051.126.038.15a2.426,2.426,0,0,1-1.969.66,5.621,5.621,0,0,1-1.022-.1c-1.444-.267-3.128-1.265-5.135-3.045C66.609,49.665,68.81,50.978,69.251,51.739Z" fill="#4a494a"/>
    <path id="Path_407" data-name="Path 407" d="M65.093,5H19.813a5.03,5.03,0,0,0-5.03,5.031V89.969A5.032,5.032,0,0,0,19.813,95H80.186a5.028,5.028,0,0,0,5.03-5.031V25.124Zm0,7.113L78.1,25.124H65.093ZM80.187,89.969H19.813V10.031H60.062V25.124a5.029,5.029,0,0,0,5.03,5.031H80.186V89.969Z" fill="#4a494a"/>
    <path id="Path_408" data-name="Path 408" d="M41.688,69.355a3.667,3.667,0,0,0-1.464-.782,9.052,9.052,0,0,0-2.354-.238H34.521a2.036,2.036,0,0,0-1.428.437,1.866,1.866,0,0,0-.475,1.413v9.932a1.938,1.938,0,0,0,.425,1.34,1.551,1.551,0,0,0,2.251,0,1.95,1.95,0,0,0,.435-1.355V76.7H37.87a5.764,5.764,0,0,0,3.772-1.074,3.92,3.92,0,0,0,1.3-3.175,4.649,4.649,0,0,0-.317-1.755A3.548,3.548,0,0,0,41.688,69.355Zm-2.164,4.153a1.545,1.545,0,0,1-.818.543,5.054,5.054,0,0,1-1.468.182H35.73V70.795h1.508c1.359,0,1.91.271,2.129.492A1.7,1.7,0,0,1,39.8,72.5,1.652,1.652,0,0,1,39.524,73.508Z" fill="#4a494a"/>
    <path id="Path_409" data-name="Path 409" d="M54.059,69.565a4.452,4.452,0,0,0-1.825-.977,9.491,9.491,0,0,0-2.339-.254h-3.4a1.611,1.611,0,0,0-1.849,1.849v9.448a4.065,4.065,0,0,0,.119,1.083,1.241,1.241,0,0,0,.582.752,2.322,2.322,0,0,0,1.2.252h3.4a10.368,10.368,0,0,0,1.635-.117,5.459,5.459,0,0,0,1.387-.415,4.73,4.73,0,0,0,1.2-.791A5.641,5.641,0,0,0,55.3,78.957a6.552,6.552,0,0,0,.648-1.8,10.553,10.553,0,0,0,.208-2.17A6.791,6.791,0,0,0,54.059,69.565ZM51.786,78.6a1.879,1.879,0,0,1-.6.348,2.941,2.941,0,0,1-.7.162c-.237.022-.572.034-1,.034H47.754V70.9h1.473a6.758,6.758,0,0,1,1.966.249,2.318,2.318,0,0,1,1.278,1.1,5.418,5.418,0,0,1,.54,2.727A4.565,4.565,0,0,1,51.786,78.6Z" fill="#4a494a"/>
    <path id="Path_410" data-name="Path 410" d="M65.9,68.335H59.747a2.408,2.408,0,0,0-1.014.186,1.283,1.283,0,0,0-.646.64,2.4,2.4,0,0,0-.19,1.024V80.1a1.951,1.951,0,0,0,.431,1.364,1.571,1.571,0,0,0,2.249.006,1.959,1.959,0,0,0,.431-1.37v-4h4.048a1.545,1.545,0,0,0,1.053-.326,1.144,1.144,0,0,0,.384-.9,1.16,1.16,0,0,0-.376-.9,1.527,1.527,0,0,0-1.061-.334H61.008v-2.8H65.9a1.578,1.578,0,0,0,1.1-.343,1.28,1.28,0,0,0,0-1.829A1.586,1.586,0,0,0,65.9,68.335Z" fill="#4a494a"/>
  </g>
</svg>
