<svg xmlns="http://www.w3.org/2000/svg" width="25" height="25" viewBox="0 0 25 25">
  <path id="Subtraction_26" data-name="Subtraction 26" d="M1245.756-4442a12.509,12.509,0,0,1-8.055-2.94l.816-.806.713-.706c.516-.517,1.045-1.056,1.587-1.609l.013-.014c1.413-1.441,2.874-2.932,4.39-4.277a3.671,3.671,0,0,0,1.152.369,5.555,5.555,0,0,0,.583.031,4.284,4.284,0,0,0,3.544-1.7,4.82,4.82,0,0,0,.62-4.316c-.693.583-1.43,1.343-2.143,2.078l-.019.02c-.23.237-.468.482-.7.712a28.4,28.4,0,0,1-2.627-2.626c.952-.913,1.9-1.858,2.811-2.811a5.326,5.326,0,0,0-1.462-.21,4.375,4.375,0,0,0-3.587,1.767,4.6,4.6,0,0,0-.572,4.158c-1.031,1.081-3.857,3.939-7.375,7.46a12.43,12.43,0,0,1-2.193-7.075,12.418,12.418,0,0,1,3.661-8.838,12.42,12.42,0,0,1,8.839-3.661,12.419,12.419,0,0,1,8.839,3.661,12.418,12.418,0,0,1,3.661,8.838,12.418,12.418,0,0,1-3.661,8.839A12.419,12.419,0,0,1,1245.756-4442Z" transform="translate(-1233.256 4467)" fill="#4a494a"/>
</svg>
