<svg xmlns="http://www.w3.org/2000/svg" width="96.586" height="88.704" viewBox="0 0 96.586 88.704">
  <g id="noun_analytic_3672050" transform="translate(-5 -7.04)">
    <path id="Path_414" data-name="Path 414" d="M60.409,81.685a1.925,1.925,0,0,0,1.932-1.932V24.062a1.925,1.925,0,0,0-1.932-1.932h-11.8a1.937,1.937,0,0,0-1.932,1.932V79.753a1.937,1.937,0,0,0,1.932,1.932Z" transform="translate(38.829 14.06)" fill="#4a494a"/>
    <path id="Path_415" data-name="Path 415" d="M33.129,76.411a1.937,1.937,0,0,0,1.932-1.932V29.722a1.925,1.925,0,0,0-1.932-1.932h-11.8a1.925,1.925,0,0,0-1.932,1.932V74.48a1.937,1.937,0,0,0,1.932,1.932Z" transform="translate(13.411 19.333)" fill="#4a494a"/>
    <path id="Path_416" data-name="Path 416" d="M46.769,32.77h-11.8A1.937,1.937,0,0,0,33.034,34.7V69.84a1.937,1.937,0,0,0,1.932,1.932h11.8A1.937,1.937,0,0,0,48.7,69.84V34.7A1.937,1.937,0,0,0,46.769,32.77Z" transform="translate(26.12 23.973)" fill="#4a494a"/>
    <path id="Path_417" data-name="Path 417" d="M19.489,37.75H7.686a1.925,1.925,0,0,0-1.932,1.932V65.2a1.937,1.937,0,0,0,1.932,1.932h11.8A1.937,1.937,0,0,0,21.421,65.2V39.682A1.925,1.925,0,0,0,19.489,37.75Z" transform="translate(0.703 28.613)" fill="#4a494a"/>
    <path id="Path_418" data-name="Path 418" d="M92.3,7.04A9.3,9.3,0,0,0,83,16.332,9.169,9.169,0,0,0,84.147,20.7L72.322,31.213a9.165,9.165,0,0,0-12.363.916L45.864,22.94a9.168,9.168,0,0,0,.5-2.869,9.292,9.292,0,1,0-18.583,0A9.187,9.187,0,0,0,29.12,24.8l-9.511,9.149a9.5,9.5,0,1,0,2.62,2.841l9.5-9.142a9.184,9.184,0,0,0,12.2-1.36l14.017,9.138a9.181,9.181,0,0,0-.573,3.1,9.292,9.292,0,0,0,18.583,0,9.174,9.174,0,0,0-1.14-4.365L86.643,23.654A9.2,9.2,0,0,0,92.3,25.622a9.291,9.291,0,0,0,0-18.582Zm-78,39.937a5.428,5.428,0,1,1,5.427-5.427A5.434,5.434,0,0,1,14.291,46.977ZM37.073,25.5A5.428,5.428,0,1,1,42.5,20.072,5.434,5.434,0,0,1,37.073,25.5ZM66.664,43.958a5.428,5.428,0,1,1,5.427-5.427A5.434,5.434,0,0,1,66.664,43.958ZM92.3,21.759a5.428,5.428,0,1,1,5.427-5.427A5.434,5.434,0,0,1,92.3,21.759Z" transform="translate(0 0)" fill="#4a494a"/>
  </g>
</svg>
