<svg xmlns="http://www.w3.org/2000/svg" width="25" height="25" viewBox="0 0 25 25">
  <path id="Subtraction_25" data-name="Subtraction 25" d="M3702.5-4916a12.42,12.42,0,0,1-8.839-3.661A12.417,12.417,0,0,1,3690-4928.5a12.416,12.416,0,0,1,3.662-8.838A12.42,12.42,0,0,1,3702.5-4941a12.419,12.419,0,0,1,8.838,3.661A12.417,12.417,0,0,1,3715-4928.5a12.419,12.419,0,0,1-3.661,8.839A12.419,12.419,0,0,1,3702.5-4916Zm-1.308-6.634v2.963h3.176v-2.963Zm1.8-12.114a2.194,2.194,0,0,1,.711.141,2.378,2.378,0,0,1,.759.451,2.57,2.57,0,0,1,.6.817,2.77,2.77,0,0,1,.249,1.221,3.027,3.027,0,0,1-.154,1.02,2.735,2.735,0,0,1-.427.77,4.3,4.3,0,0,1-.616.629c-.232.192-.476.4-.724.616a6.616,6.616,0,0,0-.817.818,3.987,3.987,0,0,0-.582.96,5.1,5.1,0,0,0-.344,1.269,12.441,12.441,0,0,0-.107,1.766h2.561a5.845,5.845,0,0,1,.154-1.446,3.536,3.536,0,0,1,.439-1.032,4.269,4.269,0,0,1,.664-.793c.247-.232.518-.473.83-.735.279-.245.527-.466.759-.676a4.28,4.28,0,0,0,.676-.782,3.71,3.71,0,0,0,.474-1.043,5.111,5.111,0,0,0,.179-1.435,4.981,4.981,0,0,0-.4-2.039,4.278,4.278,0,0,0-1.1-1.505,4.91,4.91,0,0,0-1.636-.924,6.254,6.254,0,0,0-2.027-.32,6.424,6.424,0,0,0-2.359.414,5.137,5.137,0,0,0-1.8,1.174,5.038,5.038,0,0,0-1.138,1.825,6.869,6.869,0,0,0-.391,2.37h2.7a4.3,4.3,0,0,1,.7-2.572A2.517,2.517,0,0,1,3702.994-4934.748Z" transform="translate(-3690 4941)" fill="#4a494a"/>
</svg>
