<svg xmlns="http://www.w3.org/2000/svg" width="25.316" height="25.316" viewBox="0 0 25.316 25.316"><defs><style>.a{fill:#4a494a;fill-rule:evenodd;}</style></defs><path class="a" d="M15.565,3.657l1.406.563,2.25-1.688a1.107,1.107,0,0,1,1.313.094L22.6,4.688A1,1,0,0,1,22.691,6L21.1,8.345l.563,1.406,2.813.469a.925.925,0,0,1,.844.938v2.907a1.1,1.1,0,0,1-.844,1.031l-2.813.469L21.1,16.971l1.688,2.25a1.107,1.107,0,0,1-.094,1.313L20.628,22.6a1,1,0,0,1-1.313.094L16.971,21.1l-1.406.563L15.1,24.473a1.1,1.1,0,0,1-1.031.844H11.158a.925.925,0,0,1-.938-.844L9.752,21.66,8.345,21.1,6,22.691A1,1,0,0,1,4.688,22.6L2.625,20.534a.983.983,0,0,1-.094-1.219l1.688-2.344a4.42,4.42,0,0,1-.563-1.406L.844,15.1A1.1,1.1,0,0,1,0,14.065V11.158a.925.925,0,0,1,.844-.938l2.813-.469a3.7,3.7,0,0,1,.563-1.406L2.532,6a1.022,1.022,0,0,1,.188-1.313L4.782,2.625A.983.983,0,0,1,6,2.532L8.345,4.219l1.406-.563L10.22.844A.925.925,0,0,1,11.158,0h2.907A1.1,1.1,0,0,1,15.1.844ZM12.658,7.314A5.345,5.345,0,1,0,18,12.658,5.4,5.4,0,0,0,12.658,7.314Z"/></svg>