<svg xmlns="http://www.w3.org/2000/svg" xmlns:xlink="http://www.w3.org/1999/xlink" width="16.008" height="17.208" viewBox="0 0 16.008 17.208">
  <defs>
    <clipPath id="clip-path">
      <path id="Path_94" data-name="Path 94" d="M712.248-18.174a5.307,5.307,0,0,1-6.224-4.219,5.361,5.361,0,0,1,4.174-6.292,5.307,5.307,0,0,1,6.223,4.22,5.36,5.36,0,0,1-4.174,6.291m5.48-.294c-.631-.768-.309-1.229-.137-1.478a.772.772,0,0,0,.063-.1,7.359,7.359,0,0,0-1-8.186,7.246,7.246,0,0,0-6.881-2.385,7.12,7.12,0,0,0-3.322,1.652,7.235,7.235,0,0,0-2.435,5.007,7.375,7.375,0,0,0,1.789,5.313,7.24,7.24,0,0,0,6.872,2.38,7.179,7.179,0,0,0,.948-.258.833.833,0,0,0,.126-.064,1.433,1.433,0,0,1,.415-.17,1.076,1.076,0,0,1,1.046.477c.6.709,1.878,2.152,1.878,2.152a1.675,1.675,0,0,0,1.589.551,1.638,1.638,0,0,0,.765-.38A1.67,1.67,0,0,0,720-15.107a1.7,1.7,0,0,0-.414-1.225c-.1-.111-1.282-1.425-1.863-2.136" clip-rule="evenodd"/>
    </clipPath>
    <clipPath id="clip-path-2">
      <path id="Path_93" data-name="Path 93" d="M-711,2419.25H1673.345V-1016H-711Z" transform="translate(711 1016)" />
    </clipPath>
    <clipPath id="clip-path-3">
      <rect id="Rectangle_10" data-name="Rectangle 10" width="24" height="26" transform="translate(0.01 -0.34)" />
    </clipPath>
    <clipPath id="clip-path-4">
      <path id="Path_92" data-name="Path 92" d="M703-13.591h17.609V-32H703Z" transform="translate(-703 32)" />
    </clipPath>
  </defs>
  <g id="Group_386" data-name="Group 386" transform="translate(-704 30.75)" clip-path="url(#clip-path)">
    <g id="Group_385" data-name="Group 385" transform="translate(-428.544 -819.329)" clip-path="url(#clip-path-2)">
      <g id="Group_384" data-name="Group 384" transform="translate(1128.542 784.377)" style="isolation: isolate">
        <g id="Group_383" data-name="Group 383" clip-path="url(#clip-path-3)">
          <g id="Group_382" data-name="Group 382" transform="translate(3.202 3.202)" clip-path="url(#clip-path-4)">
            <path id="Path_91" data-name="Path 91" d="M699-35.75h24.012v25.212H699Z" transform="translate(-702.202 32.749)" />
          </g>
        </g>
      </g>
    </g>
  </g>
</svg>
