<svg xmlns="http://www.w3.org/2000/svg" width="70.433" height="90" viewBox="0 0 70.433 90">
  <g id="Group_764" data-name="Group 764" transform="translate(-481 -348)">
    <g id="noun_PDF_749513" transform="translate(466.217 343)">
      <path id="Path_407" data-name="Path 407" d="M65.093,5H19.813a5.03,5.03,0,0,0-5.03,5.031V89.969A5.032,5.032,0,0,0,19.813,95H80.186a5.028,5.028,0,0,0,5.03-5.031V25.124Zm0,7.113L78.1,25.124H65.093ZM80.187,89.969H19.813V10.031H60.062V25.124a5.029,5.029,0,0,0,5.03,5.031H80.186V89.969Z" fill="#4a494a"/>
    </g>
    <line id="Line_22" data-name="Line 22" x2="45.015" transform="translate(493.5 381.5)" fill="none" stroke="#4a494a" stroke-linecap="round" stroke-width="4"/>
    <line id="Line_23" data-name="Line 23" x2="45.015" transform="translate(493.5 392.5)" fill="none" stroke="#4a494a" stroke-linecap="round" stroke-width="4"/>
    <line id="Line_24" data-name="Line 24" x2="45.015" transform="translate(493.5 403.5)" fill="none" stroke="#4a494a" stroke-linecap="round" stroke-width="4"/>
    <line id="Line_25" data-name="Line 25" x2="45.015" transform="translate(493.5 414.5)" fill="none" stroke="#4a494a" stroke-linecap="round" stroke-width="4"/>
    <line id="Line_26" data-name="Line 26" x2="45.015" transform="translate(493.5 425.5)" fill="none" stroke="#4a494a" stroke-linecap="round" stroke-width="4"/>
    <line id="Line_27" data-name="Line 27" x2="13" transform="translate(499.5 365.5)" fill="none" stroke="#4a494a" stroke-linecap="round" stroke-width="4"/>
    <line id="Line_28" data-name="Line 28" x2="13" transform="translate(506 359) rotate(90)" fill="none" stroke="#4a494a" stroke-linecap="round" stroke-width="4"/>
  </g>
</svg>
